<svg xmlns="http://www.w3.org/2000/svg" xmlns:xlink="http://www.w3.org/1999/xlink" width="19px" height="24px">
  <path fill-rule="evenodd" fill="rgb(255, 255, 255)" d="M18.614,23.789 L18.099,23.789 C17.885,23.789 17.712,23.619 17.712,23.409 C17.712,23.199 17.885,23.028 18.099,23.028 L18.227,23.028 L18.227,0.971 L18.099,0.971 C17.885,0.971 17.712,0.800 17.712,0.591 C17.712,0.380 17.885,0.210 18.099,0.210 L18.614,0.210 C18.827,0.210 19.000,0.380 19.000,0.591 L19.000,23.409 C19.000,23.619 18.827,23.789 18.614,23.789 ZM16.553,23.789 L0.798,23.789 C0.584,23.789 0.411,23.619 0.411,23.409 L0.411,4.140 C0.411,4.127 0.412,4.115 0.413,4.102 C0.414,4.093 0.416,4.084 0.418,4.074 C0.418,4.071 0.418,4.068 0.419,4.065 C0.421,4.055 0.424,4.044 0.427,4.033 C0.428,4.032 0.428,4.031 0.428,4.029 C0.432,4.019 0.435,4.009 0.439,3.998 C0.440,3.997 0.440,3.996 0.441,3.994 C0.445,3.985 0.450,3.975 0.455,3.966 C0.455,3.965 0.456,3.963 0.457,3.961 C0.462,3.952 0.467,3.944 0.472,3.936 C0.474,3.934 0.475,3.931 0.477,3.929 C0.482,3.921 0.487,3.914 0.493,3.907 C0.495,3.904 0.497,3.902 0.499,3.899 C0.506,3.890 0.514,3.882 0.522,3.874 C0.523,3.873 0.524,3.872 0.525,3.871 L4.130,0.322 C4.131,0.321 4.132,0.320 4.133,0.320 C4.141,0.312 4.149,0.304 4.158,0.297 C4.161,0.295 4.163,0.293 4.166,0.291 C4.173,0.285 4.181,0.280 4.189,0.275 C4.191,0.273 4.193,0.272 4.195,0.271 C4.204,0.265 4.212,0.260 4.221,0.255 C4.223,0.255 4.225,0.254 4.226,0.253 C4.236,0.248 4.245,0.244 4.255,0.239 C4.257,0.239 4.258,0.239 4.259,0.238 C4.269,0.234 4.280,0.230 4.291,0.227 C4.292,0.226 4.294,0.226 4.295,0.226 C4.306,0.223 4.316,0.220 4.327,0.218 C4.330,0.217 4.334,0.217 4.337,0.216 C4.346,0.215 4.355,0.213 4.365,0.212 C4.378,0.211 4.391,0.210 4.403,0.210 L16.553,0.210 C16.767,0.210 16.939,0.380 16.939,0.591 L16.939,23.409 C16.939,23.619 16.767,23.789 16.553,23.789 ZM4.017,1.509 L1.731,3.760 L4.017,3.760 L4.017,1.509 ZM16.167,0.971 L4.790,0.971 L4.790,4.140 C4.790,4.350 4.617,4.520 4.403,4.520 L1.184,4.520 L1.184,23.028 L16.167,23.028 L16.167,0.971 ZM3.373,7.309 L13.978,7.309 C14.191,7.309 14.364,7.480 14.364,7.690 C14.364,7.900 14.191,8.070 13.978,8.070 L3.373,8.070 C3.160,8.070 2.987,7.900 2.987,7.690 C2.987,7.480 3.160,7.309 3.373,7.309 ZM3.373,9.338 L7.645,9.338 C7.859,9.338 8.032,9.508 8.032,9.718 C8.032,9.928 7.859,10.098 7.645,10.098 L3.373,10.098 C3.160,10.098 2.987,9.928 2.987,9.718 C2.987,9.508 3.160,9.338 3.373,9.338 ZM3.373,11.366 L7.645,11.366 C7.859,11.366 8.032,11.536 8.032,11.746 C8.032,11.956 7.859,12.126 7.645,12.126 L3.373,12.126 C3.160,12.126 2.987,11.956 2.987,11.746 C2.987,11.536 3.160,11.366 3.373,11.366 ZM3.373,13.394 L13.978,13.394 C14.191,13.394 14.364,13.564 14.364,13.774 C14.364,13.984 14.191,14.155 13.978,14.155 L3.373,14.155 C3.160,14.155 2.987,13.984 2.987,13.774 C2.987,13.564 3.160,13.394 3.373,13.394 ZM3.373,15.422 L7.645,15.422 C7.859,15.422 8.032,15.593 8.032,15.803 C8.032,16.013 7.859,16.183 7.645,16.183 L3.760,16.183 L3.760,19.479 L7.259,19.479 L7.259,17.324 C7.259,17.114 7.432,16.944 7.645,16.944 C7.859,16.944 8.032,17.114 8.032,17.324 L8.032,19.859 C8.032,20.069 7.859,20.240 7.645,20.240 L3.373,20.240 C3.160,20.240 2.987,20.069 2.987,19.859 L2.987,15.803 C2.987,15.593 3.160,15.422 3.373,15.422 ZM9.706,15.422 L13.978,15.422 C14.191,15.422 14.364,15.593 14.364,15.803 C14.364,16.013 14.191,16.183 13.978,16.183 L9.706,16.183 C9.492,16.183 9.319,16.013 9.319,15.803 C9.319,15.593 9.492,15.422 9.706,15.422 ZM9.706,17.451 L13.978,17.451 C14.191,17.451 14.364,17.621 14.364,17.831 C14.364,18.041 14.191,18.211 13.978,18.211 L9.706,18.211 C9.492,18.211 9.319,18.041 9.319,17.831 C9.319,17.621 9.492,17.451 9.706,17.451 ZM9.706,19.479 L11.402,19.479 C11.616,19.479 11.789,19.649 11.789,19.859 C11.789,20.069 11.616,20.240 11.402,20.240 L9.706,20.240 C9.492,20.240 9.319,20.069 9.319,19.859 C9.319,19.649 9.492,19.479 9.706,19.479 ZM13.978,10.098 L9.706,10.098 C9.492,10.098 9.319,9.928 9.319,9.718 C9.319,9.508 9.492,9.338 9.706,9.338 L13.978,9.338 C14.191,9.338 14.364,9.508 14.364,9.718 C14.364,9.928 14.191,10.098 13.978,10.098 ZM13.978,12.126 L9.706,12.126 C9.492,12.126 9.319,11.956 9.319,11.746 C9.319,11.536 9.492,11.366 9.706,11.366 L13.978,11.366 C14.191,11.366 14.364,11.536 14.364,11.746 C14.364,11.956 14.191,12.126 13.978,12.126 ZM13.978,4.520 L5.949,4.520 C5.735,4.520 5.562,4.350 5.562,4.140 C5.562,3.930 5.735,3.760 5.949,3.760 L13.978,3.760 C14.191,3.760 14.364,3.930 14.364,4.140 C14.364,4.350 14.191,4.520 13.978,4.520 Z" />
</svg>
