<svg xmlns="http://www.w3.org/2000/svg" xmlns:xlink="http://www.w3.org/1999/xlink" width="21px" height="27px">
  <path fill-rule="evenodd" fill="rgb(255, 255, 255)" d="M20.225,6.662 L20.037,6.662 L20.037,8.532 C20.037,9.117 19.902,9.691 19.632,10.213 L19.444,10.581 C19.239,10.982 19.131,11.419 19.131,11.867 L19.131,25.967 C19.131,26.536 18.657,27.000 18.074,27.000 L4.651,27.000 C2.899,27.000 1.482,25.614 1.482,23.902 C1.482,23.060 1.827,22.296 2.387,21.738 L2.387,12.188 C2.387,11.566 2.182,10.961 1.800,10.466 C1.298,9.818 1.029,9.022 1.029,8.211 L1.029,6.657 L0.840,6.657 C0.447,6.657 0.123,6.347 0.123,5.957 L0.123,5.088 C0.123,4.008 1.018,3.128 2.129,3.128 L2.646,3.128 L4.172,1.638 C4.355,1.458 4.597,1.358 4.856,1.358 L6.905,1.358 L6.905,0.916 C6.905,0.674 7.110,0.474 7.358,0.474 L13.244,0.474 C13.492,0.474 13.697,0.674 13.697,0.916 L13.697,1.358 L16.198,1.358 C16.457,1.358 16.700,1.458 16.883,1.638 L18.409,3.128 L18.926,3.128 C20.037,3.128 20.932,4.008 20.942,5.088 L20.942,5.962 C20.942,6.347 20.624,6.662 20.225,6.662 ZM2.382,23.908 C2.382,25.125 3.395,26.115 4.657,26.115 C4.694,26.115 4.738,26.110 4.775,26.110 C4.792,26.110 4.808,26.104 4.824,26.104 C4.846,26.104 4.872,26.099 4.894,26.099 C4.910,26.099 4.932,26.094 4.953,26.094 C4.970,26.094 4.991,26.094 5.007,26.088 C5.034,26.088 5.056,26.083 5.077,26.078 C5.088,26.073 5.104,26.073 5.120,26.067 C5.147,26.062 5.169,26.057 5.196,26.051 C5.207,26.046 5.223,26.046 5.234,26.041 C5.261,26.036 5.282,26.025 5.309,26.020 C5.320,26.015 5.331,26.015 5.341,26.009 C5.368,25.999 5.395,25.994 5.422,25.983 C5.433,25.978 5.438,25.978 5.449,25.972 C5.476,25.962 5.503,25.952 5.530,25.941 C5.541,25.936 5.546,25.936 5.552,25.930 C5.579,25.920 5.606,25.904 5.633,25.894 C5.638,25.894 5.643,25.888 5.649,25.888 C5.681,25.872 5.708,25.862 5.735,25.846 C5.740,25.846 5.740,25.841 5.746,25.841 C5.773,25.825 5.805,25.809 5.832,25.794 C5.832,25.788 5.837,25.788 5.837,25.788 C5.983,25.704 6.112,25.604 6.231,25.493 C6.242,25.483 6.252,25.472 6.263,25.462 C6.274,25.451 6.285,25.441 6.296,25.430 C6.312,25.409 6.328,25.393 6.344,25.377 C6.349,25.367 6.360,25.361 6.366,25.351 C6.382,25.330 6.403,25.309 6.420,25.288 C6.425,25.283 6.430,25.272 6.436,25.267 C6.452,25.246 6.473,25.225 6.490,25.198 C6.495,25.193 6.495,25.188 6.500,25.182 C6.517,25.156 6.538,25.130 6.554,25.103 C6.554,25.098 6.560,25.098 6.560,25.093 C6.576,25.061 6.597,25.035 6.614,25.003 C6.619,25.003 6.619,24.998 6.619,24.998 C6.635,24.966 6.657,24.935 6.673,24.903 C6.835,24.598 6.921,24.250 6.921,23.887 L6.921,23.882 C6.921,23.845 6.915,23.808 6.915,23.771 C6.910,23.755 6.910,23.744 6.910,23.729 C6.910,23.708 6.905,23.681 6.905,23.660 C6.889,23.523 6.862,23.386 6.818,23.255 C6.813,23.249 6.813,23.239 6.808,23.228 C6.797,23.212 6.792,23.191 6.786,23.176 C6.781,23.160 6.770,23.139 6.765,23.123 C6.759,23.118 6.759,23.118 6.759,23.112 C6.549,22.586 6.134,22.149 5.611,21.906 C5.401,21.806 5.169,21.743 4.926,21.711 C4.905,21.711 4.883,21.706 4.867,21.706 C4.856,21.701 4.840,21.701 4.829,21.701 C4.802,21.701 4.770,21.696 4.743,21.696 C4.727,21.696 4.716,21.696 4.705,21.696 C4.673,21.696 4.641,21.696 4.614,21.696 C4.597,21.696 4.587,21.696 4.576,21.696 C4.549,21.696 4.517,21.701 4.490,21.701 C4.479,21.701 4.468,21.701 4.457,21.701 C4.425,21.706 4.398,21.706 4.366,21.711 C4.355,21.717 4.350,21.717 4.339,21.717 C4.306,21.722 4.274,21.727 4.242,21.732 C4.236,21.738 4.231,21.738 4.226,21.738 C3.821,21.811 3.449,21.990 3.137,22.264 L3.050,22.343 C2.635,22.744 2.382,23.297 2.382,23.908 ZM1.940,8.211 C1.940,8.833 2.145,9.438 2.528,9.933 C3.029,10.581 3.298,11.377 3.298,12.188 L3.298,21.121 C3.503,21.026 3.719,20.958 3.940,20.905 C3.951,20.905 3.956,20.900 3.967,20.900 C3.999,20.889 4.026,20.884 4.058,20.879 C4.075,20.879 4.085,20.874 4.102,20.874 C4.145,20.863 4.188,20.858 4.231,20.853 C4.252,20.847 4.279,20.847 4.306,20.842 C4.328,20.842 4.350,20.837 4.371,20.837 C4.398,20.837 4.425,20.832 4.452,20.832 C4.473,20.826 4.490,20.826 4.511,20.826 C4.549,20.821 4.592,20.821 4.630,20.821 C4.635,20.821 4.646,20.821 4.651,20.821 C4.662,20.821 4.668,20.821 4.678,20.821 C4.716,20.826 4.754,20.826 4.792,20.826 C4.808,20.832 4.829,20.832 4.846,20.832 C4.878,20.832 4.910,20.832 4.943,20.837 C4.959,20.837 4.970,20.842 4.986,20.842 C5.034,20.847 5.077,20.853 5.126,20.858 C5.390,20.895 5.643,20.963 5.881,21.063 C5.897,21.069 5.907,21.074 5.918,21.079 C5.951,21.090 5.978,21.105 6.004,21.116 C6.042,21.132 6.075,21.153 6.112,21.169 L6.118,21.169 C6.797,21.516 7.331,22.096 7.611,22.802 C7.611,22.807 7.616,22.812 7.616,22.817 C7.622,22.844 7.633,22.870 7.643,22.896 C7.649,22.917 7.659,22.939 7.665,22.960 C7.670,22.975 7.676,22.997 7.681,23.012 C7.692,23.049 7.703,23.081 7.713,23.118 C7.713,23.128 7.719,23.134 7.719,23.144 C7.751,23.276 7.778,23.413 7.794,23.550 C7.794,23.555 7.794,23.565 7.794,23.571 C7.800,23.613 7.800,23.660 7.805,23.708 C7.805,23.718 7.805,23.729 7.805,23.739 C7.810,23.797 7.810,23.850 7.810,23.908 C7.810,23.913 7.810,23.913 7.810,23.918 C7.810,23.924 7.810,23.934 7.810,23.939 C7.810,23.992 7.810,24.039 7.805,24.092 C7.800,24.103 7.800,24.118 7.800,24.134 C7.800,24.176 7.794,24.219 7.789,24.261 C7.789,24.276 7.783,24.292 7.783,24.308 C7.778,24.350 7.767,24.392 7.762,24.435 C7.762,24.450 7.757,24.461 7.757,24.477 C7.751,24.519 7.740,24.566 7.730,24.608 C7.730,24.619 7.724,24.629 7.724,24.640 C7.713,24.693 7.697,24.745 7.681,24.798 C7.681,24.803 7.681,24.803 7.681,24.803 C7.633,24.966 7.562,25.130 7.487,25.283 C7.487,25.288 7.482,25.293 7.482,25.298 C7.460,25.340 7.438,25.388 7.412,25.430 C7.406,25.441 7.401,25.446 7.395,25.456 C7.368,25.493 7.347,25.535 7.320,25.572 C7.314,25.577 7.309,25.588 7.304,25.598 C7.277,25.635 7.250,25.672 7.223,25.709 C7.212,25.720 7.207,25.725 7.201,25.736 C7.174,25.773 7.142,25.815 7.110,25.851 C7.104,25.857 7.104,25.862 7.099,25.867 C7.061,25.909 7.023,25.952 6.986,25.994 C6.980,25.999 6.969,26.009 6.964,26.015 C6.932,26.041 6.905,26.073 6.872,26.104 C6.867,26.104 6.867,26.110 6.862,26.115 L17.557,26.115 C17.924,26.115 18.220,25.825 18.220,25.467 L18.220,11.867 C18.220,11.282 18.355,10.708 18.624,10.186 L18.813,9.818 C19.018,9.417 19.126,8.980 19.126,8.532 L19.136,8.532 L19.136,6.662 L1.940,6.662 L1.940,8.211 ZM6.910,2.243 L4.835,2.243 L3.929,3.128 L6.910,3.128 L6.910,2.243 ZM12.791,1.801 L12.791,1.358 L7.816,1.358 L7.816,1.801 L7.816,3.128 L12.791,3.128 L12.791,1.801 ZM16.220,2.243 L13.692,2.243 L13.692,3.128 L17.126,3.128 L16.220,2.243 ZM20.026,5.451 L20.026,5.088 C20.026,4.492 19.530,4.008 18.921,4.008 L18.215,4.008 L13.239,4.008 L7.358,4.008 L2.835,4.008 L2.129,4.008 C1.519,4.008 1.023,4.492 1.023,5.088 L1.023,5.451 C1.023,5.630 1.174,5.778 1.358,5.778 L19.697,5.778 C19.880,5.778 20.031,5.630 20.031,5.451 L20.026,5.451 ZM15.056,15.506 L13.244,15.506 C12.991,15.506 12.791,15.306 12.797,15.069 L12.797,13.299 C12.797,13.057 13.002,12.857 13.250,12.857 C13.498,12.857 13.703,13.057 13.703,13.299 L13.703,13.989 C13.902,13.768 14.053,13.542 14.161,13.299 C14.490,12.567 14.409,11.772 14.069,10.992 C14.004,10.840 13.934,10.708 13.864,10.587 C13.821,10.518 13.794,10.476 13.778,10.455 C13.632,10.255 13.686,9.981 13.891,9.839 C14.096,9.697 14.382,9.749 14.522,9.949 C14.619,10.092 14.759,10.329 14.899,10.645 C15.330,11.624 15.433,12.662 14.985,13.652 C14.835,13.995 14.614,14.321 14.333,14.621 L15.056,14.621 C15.304,14.621 15.508,14.822 15.508,15.064 C15.508,15.306 15.304,15.506 15.056,15.506 ZM12.592,17.640 C12.446,17.734 12.204,17.871 11.880,18.008 C10.878,18.430 9.816,18.530 8.802,18.093 C8.452,17.945 8.118,17.729 7.810,17.455 L7.810,18.161 C7.810,18.403 7.606,18.604 7.358,18.604 C7.110,18.604 6.905,18.403 6.905,18.161 L6.905,16.391 C6.905,16.149 7.110,15.949 7.358,15.949 L9.169,15.949 C9.417,15.949 9.622,16.149 9.622,16.391 C9.622,16.634 9.417,16.834 9.169,16.834 L8.463,16.834 C8.689,17.028 8.921,17.176 9.169,17.281 C9.913,17.603 10.732,17.524 11.525,17.197 C11.681,17.134 11.816,17.066 11.940,16.997 C12.010,16.955 12.053,16.929 12.075,16.913 C12.279,16.771 12.565,16.823 12.705,17.024 C12.851,17.223 12.797,17.503 12.592,17.640 ZM9.040,12.278 C8.862,12.451 8.576,12.451 8.398,12.278 C8.220,12.104 8.220,11.824 8.398,11.651 L8.975,11.087 C8.058,11.145 7.412,11.619 6.953,12.404 C6.781,12.709 6.646,13.036 6.549,13.368 C6.495,13.568 6.463,13.716 6.452,13.794 C6.414,14.037 6.188,14.205 5.940,14.174 C5.692,14.142 5.519,13.916 5.552,13.673 C5.568,13.558 5.606,13.368 5.676,13.131 C5.789,12.736 5.951,12.341 6.166,11.967 C6.775,10.924 7.708,10.260 8.986,10.202 L8.398,9.628 C8.220,9.454 8.220,9.175 8.398,9.001 C8.576,8.828 8.862,8.828 9.040,9.001 L10.398,10.323 C10.576,10.497 10.576,10.776 10.398,10.950 L9.040,12.278 ZM4.646,22.580 C5.395,22.580 6.004,23.176 6.004,23.908 C6.004,24.640 5.395,25.235 4.646,25.235 C3.897,25.235 3.288,24.640 3.288,23.908 C3.288,23.170 3.897,22.580 4.646,22.580 ZM4.646,24.350 C4.894,24.350 5.099,24.150 5.099,23.908 C5.099,23.666 4.894,23.465 4.646,23.465 C4.398,23.465 4.193,23.666 4.193,23.908 C4.193,24.150 4.398,24.350 4.646,24.350 Z" />
</svg>
