<svg xmlns="http://www.w3.org/2000/svg" xmlns:xlink="http://www.w3.org/1999/xlink" width="25px" height="24px">
  <path fill-rule="evenodd" fill="rgb(104, 125, 8)" d="M24.513,2.921 C24.513,2.168 24.260,0.210 24.260,0.210 L1.075,0.210 C1.075,0.210 0.720,2.168 0.720,2.921 C0.720,9.224 5.765,14.438 12.110,14.698 L12.110,22.786 L8.364,22.786 L8.364,23.789 L16.918,23.789 L16.918,22.786 L13.122,22.786 L13.122,14.698 C19.467,14.438 24.513,9.224 24.513,2.921 ZM12.602,13.709 C6.578,13.709 1.732,8.891 1.732,2.921 C1.732,2.371 1.780,1.768 1.882,1.213 L17.185,1.213 L14.334,4.474 L17.219,4.474 L14.636,7.435 L17.317,10.546 L18.076,9.895 L15.949,7.435 L19.389,3.471 L16.553,3.471 L18.547,1.213 L23.335,1.213 C23.438,1.816 23.486,2.366 23.486,2.921 C23.486,8.891 18.625,13.709 12.602,13.709 Z" />
</svg>
