<svg xmlns="http://www.w3.org/2000/svg" xmlns:xlink="http://www.w3.org/1999/xlink" width="24px" height="25px">
  <path fill-rule="evenodd" fill="rgb(104, 125, 8)" d="M4.425,5.946 C4.425,5.717 4.613,5.531 4.845,5.531 L18.837,5.531 C19.069,5.531 19.257,5.717 19.257,5.946 C19.257,6.175 19.069,6.361 18.837,6.361 L4.845,6.361 C4.613,6.361 4.425,6.175 4.425,5.946 ZM5.515,7.795 C5.515,7.566 5.703,7.380 5.936,7.380 L17.746,7.380 C17.978,7.380 18.167,7.566 18.167,7.795 C18.167,8.024 17.978,8.210 17.746,8.210 L5.936,8.210 C5.704,8.210 5.515,8.024 5.515,7.795 ZM15.810,20.893 C16.042,20.893 16.230,21.079 16.230,21.308 C16.230,21.537 16.042,21.723 15.810,21.723 L7.872,21.723 C7.640,21.723 7.451,21.537 7.451,21.308 C7.451,21.079 7.640,20.893 7.872,20.893 L15.810,20.893 ZM6.719,19.459 C6.719,19.230 6.907,19.044 7.139,19.044 L16.543,19.044 C16.775,19.044 16.963,19.230 16.963,19.459 C16.963,19.688 16.775,19.874 16.543,19.874 L7.139,19.874 C6.907,19.874 6.719,19.688 6.719,19.459 ZM21.450,4.254 L21.297,4.254 L19.350,16.834 C19.315,17.060 19.101,17.216 18.871,17.182 C18.642,17.147 18.484,16.935 18.519,16.708 L20.447,4.254 L3.235,4.254 L6.010,22.179 C6.103,22.784 6.621,23.222 7.240,23.222 L16.442,23.222 C17.061,23.222 17.579,22.784 17.672,22.179 L18.224,18.613 C18.259,18.387 18.473,18.231 18.704,18.266 C18.933,18.300 19.091,18.512 19.056,18.739 L18.504,22.305 C18.347,23.317 17.480,24.052 16.442,24.052 L7.240,24.052 C6.202,24.052 5.335,23.317 5.178,22.305 L2.384,4.254 L2.232,4.254 C1.175,4.254 0.316,3.407 0.316,2.364 C0.316,1.322 1.175,0.473 2.232,0.473 L4.905,0.473 C5.138,0.473 5.326,0.659 5.326,0.888 C5.326,1.118 5.138,1.303 4.905,1.303 L2.232,1.303 C1.639,1.303 1.157,1.779 1.157,2.364 C1.157,2.949 1.639,3.425 2.232,3.425 L2.745,3.425 L20.936,3.425 L21.450,3.425 C22.043,3.425 22.525,2.949 22.525,2.364 C22.525,1.779 22.043,1.303 21.450,1.303 L6.860,1.303 C6.628,1.303 6.440,1.118 6.440,0.888 C6.440,0.659 6.628,0.473 6.860,0.473 L21.450,0.473 C22.506,0.473 23.366,1.322 23.366,2.364 C23.366,3.407 22.506,4.254 21.450,4.254 Z" />
</svg>
