<svg xmlns="http://www.w3.org/2000/svg" xmlns:xlink="http://www.w3.org/1999/xlink" width="23px" height="21px">
  <path fill-rule="evenodd" fill="rgb(104, 125, 8)" d="M20.841,3.737 C21.745,5.449 22.221,7.384 22.221,9.360 C22.221,12.421 21.103,15.301 19.073,17.468 C17.035,19.644 14.325,20.842 11.439,20.842 C8.554,20.842 5.843,19.644 3.806,17.468 C1.776,15.301 0.658,12.421 0.658,9.360 C0.658,7.384 1.134,5.449 2.038,3.737 L1.191,3.335 C1.087,3.285 1.011,3.191 0.986,3.079 C0.961,2.967 0.989,2.850 1.062,2.761 L3.051,0.349 C3.161,0.215 3.349,0.173 3.507,0.248 L8.355,2.541 C8.467,2.594 8.546,2.699 8.565,2.820 C8.585,2.941 8.543,3.064 8.453,3.149 C7.154,4.381 6.378,6.354 6.378,8.427 C6.378,12.033 8.648,14.967 11.439,14.967 C14.230,14.967 16.501,12.033 16.501,8.427 C16.501,6.354 15.725,4.381 14.425,3.149 C14.336,3.064 14.294,2.941 14.313,2.820 C14.333,2.698 14.412,2.594 14.524,2.541 L19.372,0.248 C19.529,0.173 19.718,0.215 19.828,0.349 L21.817,2.761 C21.890,2.850 21.918,2.967 21.893,3.079 C21.868,3.191 21.792,3.285 21.687,3.335 L20.841,3.737 ZM19.430,1.050 L15.322,2.993 C16.558,4.374 17.257,6.323 17.257,8.427 C17.257,10.357 16.663,12.175 15.584,13.546 C14.484,14.945 13.012,15.716 11.439,15.716 C9.867,15.716 8.395,14.945 7.294,13.546 C6.215,12.175 5.621,10.357 5.621,8.427 C5.621,6.323 6.321,4.374 7.556,2.993 L3.449,1.050 L1.952,2.866 L2.724,3.233 C2.818,3.278 2.890,3.360 2.921,3.459 C2.952,3.557 2.941,3.665 2.889,3.755 C1.924,5.438 1.415,7.376 1.415,9.360 C1.415,15.278 5.912,20.093 11.439,20.093 C16.967,20.093 21.464,15.278 21.464,9.360 C21.464,7.376 20.954,5.438 19.989,3.755 C19.938,3.665 19.926,3.557 19.957,3.459 C19.989,3.360 20.060,3.278 20.155,3.233 L20.927,2.866 L19.430,1.050 ZM11.439,19.445 C6.273,19.445 2.070,14.921 2.070,9.360 C2.070,7.790 2.416,6.222 3.069,4.828 C3.349,4.230 4.048,3.962 4.660,4.217 C5.235,4.457 5.537,5.084 5.360,5.674 C5.099,6.552 4.966,7.478 4.966,8.426 C4.966,10.500 5.609,12.460 6.777,13.944 C8.005,15.505 9.661,16.364 11.439,16.364 C13.219,16.364 14.874,15.505 16.102,13.944 C17.270,12.459 17.913,10.500 17.913,8.426 C17.913,7.477 17.780,6.551 17.518,5.674 C17.342,5.084 17.643,4.457 18.219,4.217 C18.832,3.962 19.530,4.230 19.810,4.828 C20.463,6.223 20.808,7.790 20.809,9.360 C20.809,14.921 16.606,19.445 11.439,19.445 ZM19.124,5.142 C19.016,4.912 18.748,4.809 18.513,4.907 C18.292,4.999 18.177,5.237 18.244,5.462 C18.526,6.408 18.670,7.406 18.670,8.426 C18.670,10.665 17.970,12.788 16.699,14.404 C15.325,16.151 13.457,17.113 11.439,17.113 C9.422,17.113 7.554,16.151 6.180,14.404 C4.909,12.789 4.209,10.666 4.209,8.426 C4.209,7.406 4.352,6.409 4.635,5.462 C4.702,5.237 4.586,4.999 4.366,4.907 C4.306,4.882 4.244,4.870 4.183,4.870 C4.004,4.870 3.835,4.971 3.755,5.142 C3.148,6.439 2.827,7.898 2.827,9.360 C2.827,14.508 6.690,18.696 11.439,18.696 C16.189,18.696 20.052,14.508 20.052,9.360 C20.052,7.898 19.731,6.440 19.124,5.142 Z" />
</svg>
