<svg xmlns="http://www.w3.org/2000/svg" xmlns:xlink="http://www.w3.org/1999/xlink" width="29px" height="28px">
  <path fill-rule="evenodd" fill="rgb(255, 255, 255)" d="M26.842,20.533 L24.487,20.533 L24.487,21.466 C24.487,21.724 24.276,21.933 24.016,21.933 C23.756,21.933 23.546,21.724 23.546,21.466 L23.546,20.533 L22.604,20.533 L22.604,23.800 C22.604,24.057 22.393,24.266 22.133,24.266 C21.873,24.266 21.662,24.057 21.662,23.800 L21.662,20.533 L20.720,20.533 L20.720,23.333 C20.720,23.591 20.509,23.800 20.249,23.800 C19.989,23.800 19.778,23.591 19.778,23.333 L19.778,20.533 L18.836,20.533 L18.836,25.666 C18.836,25.924 18.625,26.133 18.365,26.133 C18.105,26.133 17.894,25.924 17.894,25.666 L17.894,20.533 L16.953,20.533 L16.953,23.333 C16.953,23.591 16.742,23.800 16.482,23.800 C16.222,23.800 16.011,23.591 16.011,23.333 L16.011,20.533 L15.069,20.533 L15.069,23.333 C15.069,23.591 14.858,23.800 14.598,23.800 C14.338,23.800 14.127,23.591 14.127,23.333 L14.127,20.533 L13.185,20.533 L13.185,25.666 C13.185,25.924 12.974,26.133 12.714,26.133 C12.454,26.133 12.243,25.924 12.243,25.666 L12.243,20.533 L11.301,20.533 L11.301,21.933 C11.301,22.191 11.091,22.400 10.831,22.400 C10.570,22.400 10.360,22.191 10.360,21.933 L10.360,20.533 L9.418,20.533 L9.418,23.333 C9.418,23.591 9.207,23.800 8.947,23.800 C8.687,23.800 8.476,23.591 8.476,23.333 L8.476,20.533 L7.534,20.533 L7.534,25.666 C7.534,25.924 7.323,26.133 7.063,26.133 C6.803,26.133 6.592,25.924 6.592,25.666 L6.592,20.533 L5.650,20.533 L5.650,23.800 C5.650,24.057 5.439,24.266 5.179,24.266 C4.919,24.266 4.708,24.057 4.708,23.800 L4.708,20.533 L1.412,20.533 C0.632,20.533 -0.001,19.906 -0.001,19.133 L-0.001,7.932 C-0.002,7.562 0.151,7.207 0.423,6.953 C0.674,6.675 1.036,6.522 1.412,6.533 L4.708,6.533 L4.708,4.386 C4.712,4.140 4.814,3.905 4.991,3.733 L8.476,0.279 C8.650,0.103 8.887,0.003 9.135,-0.001 L22.133,-0.001 C22.507,-0.002 22.865,0.150 23.122,0.419 C23.401,0.668 23.556,1.027 23.546,1.399 L23.546,6.533 L26.842,6.533 C27.216,6.531 27.574,6.683 27.831,6.953 C28.111,7.202 28.265,7.560 28.255,7.932 L28.255,19.133 C28.255,19.906 27.622,20.533 26.842,20.533 ZM3.767,19.600 L24.487,19.600 L24.487,18.666 L3.767,18.666 L3.767,19.600 ZM8.476,1.586 L6.310,3.733 L8.476,3.733 L8.476,1.586 ZM22.604,1.399 C22.604,1.141 22.393,0.932 22.133,0.932 L9.418,0.932 L9.418,3.733 C9.405,4.243 8.991,4.653 8.476,4.666 L5.650,4.666 L5.650,9.332 L22.604,9.332 L22.604,1.399 ZM27.313,7.932 C27.313,7.675 27.102,7.466 26.842,7.466 L23.546,7.466 L23.546,9.332 L24.958,9.332 C25.218,9.332 25.429,9.542 25.429,9.799 C25.429,10.057 25.218,10.266 24.958,10.266 L3.296,10.266 C3.036,10.266 2.825,10.057 2.825,9.799 C2.825,9.542 3.036,9.332 3.296,9.332 L4.708,9.332 L4.708,7.466 L1.412,7.466 C1.287,7.462 1.166,7.514 1.082,7.606 C0.993,7.697 0.928,7.810 0.894,7.932 L0.894,11.199 L1.883,11.199 C2.398,11.212 2.812,11.622 2.825,12.133 L2.825,14.933 C2.812,15.443 2.398,15.854 1.883,15.866 L0.894,15.866 L0.894,19.133 C0.894,19.391 1.105,19.600 1.365,19.600 L2.825,19.600 L2.825,18.666 C2.825,18.151 3.246,17.733 3.767,17.733 L24.487,17.733 C25.008,17.733 25.429,18.151 25.429,18.666 L25.429,19.600 L26.842,19.600 C27.102,19.600 27.313,19.391 27.313,19.133 L27.313,7.932 ZM0.941,12.133 L0.941,14.933 L1.930,14.933 L1.930,12.133 L0.941,12.133 ZM25.900,14.466 C25.640,14.466 25.429,14.257 25.429,13.999 L25.429,13.066 C25.429,12.808 25.640,12.599 25.900,12.599 C26.160,12.599 26.371,12.808 26.371,13.066 L26.371,13.999 C26.371,14.257 26.160,14.466 25.900,14.466 ZM23.546,14.466 C23.285,14.466 23.075,14.257 23.075,13.999 L23.075,13.066 C23.075,12.808 23.285,12.599 23.546,12.599 C23.806,12.599 24.016,12.808 24.016,13.066 L24.016,13.999 C24.016,14.257 23.806,14.466 23.546,14.466 ZM21.191,14.466 C20.931,14.466 20.720,14.257 20.720,13.999 L20.720,13.066 C20.720,12.808 20.931,12.599 21.191,12.599 C21.451,12.599 21.662,12.808 21.662,13.066 L21.662,13.999 C21.662,14.257 21.451,14.466 21.191,14.466 ZM18.836,14.466 C18.576,14.466 18.365,14.257 18.365,13.999 L18.365,13.066 C18.365,12.808 18.576,12.599 18.836,12.599 C19.096,12.599 19.307,12.808 19.307,13.066 L19.307,13.999 C19.307,14.257 19.096,14.466 18.836,14.466 ZM16.482,14.466 C16.222,14.466 16.011,14.257 16.011,13.999 L16.011,13.066 C16.011,12.808 16.222,12.599 16.482,12.599 C16.742,12.599 16.953,12.808 16.953,13.066 L16.953,13.999 C16.953,14.257 16.742,14.466 16.482,14.466 ZM14.127,14.466 C13.867,14.466 13.656,14.257 13.656,13.999 L13.656,13.066 C13.656,12.808 13.867,12.599 14.127,12.599 C14.387,12.599 14.598,12.808 14.598,13.066 L14.598,13.999 C14.598,14.257 14.387,14.466 14.127,14.466 ZM11.772,14.466 C11.512,14.466 11.301,14.257 11.301,13.999 L11.301,13.066 C11.301,12.808 11.512,12.599 11.772,12.599 C12.032,12.599 12.243,12.808 12.243,13.066 L12.243,13.999 C12.243,14.257 12.032,14.466 11.772,14.466 ZM9.418,14.466 C9.158,14.466 8.947,14.257 8.947,13.999 L8.947,13.066 C8.947,12.808 9.158,12.599 9.418,12.599 C9.678,12.599 9.889,12.808 9.889,13.066 L9.889,13.999 C9.889,14.257 9.678,14.466 9.418,14.466 ZM7.063,14.466 C6.803,14.466 6.592,14.257 6.592,13.999 L6.592,13.066 C6.592,12.808 6.803,12.599 7.063,12.599 C7.323,12.599 7.534,12.808 7.534,13.066 L7.534,13.999 C7.534,14.257 7.323,14.466 7.063,14.466 ZM4.708,14.466 C4.448,14.466 4.238,14.257 4.238,13.999 L4.238,13.066 C4.238,12.808 4.448,12.599 4.708,12.599 C4.969,12.599 5.179,12.808 5.179,13.066 L5.179,13.999 C5.179,14.257 4.969,14.466 4.708,14.466 ZM8.947,24.733 C9.207,24.733 9.418,24.942 9.418,25.200 L9.418,27.066 C9.418,27.324 9.207,27.533 8.947,27.533 C8.687,27.533 8.476,27.324 8.476,27.066 L8.476,25.200 C8.476,24.942 8.687,24.733 8.947,24.733 ZM10.831,22.866 C11.091,22.866 11.301,23.075 11.301,23.333 L11.301,26.133 C11.301,26.391 11.091,26.600 10.831,26.600 C10.570,26.600 10.360,26.391 10.360,26.133 L10.360,23.333 C10.360,23.075 10.570,22.866 10.831,22.866 ZM14.598,24.733 C14.858,24.733 15.069,24.942 15.069,25.200 L15.069,27.533 C15.069,27.791 14.858,28.000 14.598,28.000 C14.338,28.000 14.127,27.791 14.127,27.533 L14.127,25.200 C14.127,24.942 14.338,24.733 14.598,24.733 ZM16.482,24.733 C16.742,24.733 16.953,24.942 16.953,25.200 L16.953,26.600 C16.953,26.857 16.742,27.066 16.482,27.066 C16.222,27.066 16.011,26.857 16.011,26.600 L16.011,25.200 C16.011,24.942 16.222,24.733 16.482,24.733 ZM20.249,24.733 C20.509,24.733 20.720,24.942 20.720,25.200 L20.720,27.066 C20.720,27.324 20.509,27.533 20.249,27.533 C19.989,27.533 19.778,27.324 19.778,27.066 L19.778,25.200 C19.778,24.942 19.989,24.733 20.249,24.733 ZM24.016,22.866 C24.276,22.866 24.487,23.075 24.487,23.333 L24.487,24.266 C24.487,24.524 24.276,24.733 24.016,24.733 C23.756,24.733 23.546,24.524 23.546,24.266 L23.546,23.333 C23.546,23.075 23.756,22.866 24.016,22.866 Z" />
</svg>
