<svg xmlns="http://www.w3.org/2000/svg" xmlns:xlink="http://www.w3.org/1999/xlink" width="34px" height="24px">
  <path fill-rule="evenodd" fill="rgb(104, 125, 8)" d="M32.566,21.003 L31.429,21.003 C31.169,22.583 29.822,23.789 28.204,23.789 C26.585,23.789 25.239,22.583 24.979,21.003 L13.981,21.003 C13.720,22.583 12.374,23.789 10.756,23.789 C9.619,23.789 8.616,23.194 8.029,22.292 C7.443,23.194 6.440,23.789 5.303,23.789 C3.684,23.789 2.338,22.583 2.078,21.003 L0.941,21.003 C0.640,21.003 0.396,20.754 0.396,20.446 L0.396,15.989 C0.396,15.682 0.640,15.432 0.941,15.432 L1.486,15.432 L1.486,1.504 C1.486,1.196 1.730,0.947 2.031,0.947 L23.842,0.947 C24.143,0.947 24.387,1.196 24.387,1.504 L24.387,4.289 L28.513,4.289 C30.447,4.289 32.021,5.897 32.021,7.873 L32.021,15.432 L32.566,15.432 C32.867,15.432 33.111,15.682 33.111,15.989 L33.111,20.446 C33.111,20.754 32.867,21.003 32.566,21.003 ZM28.204,22.675 C29.407,22.675 30.385,21.675 30.385,20.446 C30.385,19.217 29.407,18.218 28.204,18.218 C27.001,18.218 26.023,19.217 26.023,20.446 C26.023,21.675 27.001,22.675 28.204,22.675 ZM10.755,22.675 C11.958,22.675 12.937,21.675 12.937,20.446 C12.937,19.217 11.958,18.218 10.755,18.218 C9.553,18.218 8.575,19.217 8.575,20.446 C8.575,21.675 9.553,22.675 10.755,22.675 ZM5.303,22.675 C6.506,22.675 7.484,21.675 7.484,20.446 C7.484,19.217 6.506,18.218 5.303,18.218 C4.100,18.218 3.122,19.217 3.122,20.446 C3.122,21.675 4.100,22.675 5.303,22.675 ZM23.297,4.846 L23.297,2.061 L2.577,2.061 L2.577,15.432 L23.297,15.432 L23.297,4.846 ZM30.930,7.873 C30.930,6.511 29.846,5.403 28.513,5.403 L24.387,5.403 L24.387,15.432 L30.930,15.432 L30.930,7.873 ZM32.021,16.546 L31.475,16.546 L23.847,16.546 C23.845,16.546 23.844,16.547 23.842,16.547 L2.031,16.547 C2.029,16.547 2.028,16.546 2.026,16.546 L1.486,16.546 L1.486,19.889 L2.077,19.889 C2.338,18.310 3.684,17.103 5.303,17.103 C6.440,17.103 7.443,17.699 8.029,18.601 C8.616,17.699 9.618,17.103 10.755,17.103 C12.374,17.103 13.720,18.310 13.981,19.889 L24.978,19.889 C25.239,18.310 26.585,17.103 28.204,17.103 C29.822,17.103 31.169,18.310 31.429,19.889 L32.021,19.889 L32.021,16.546 ZM26.023,6.518 L27.481,6.518 C28.782,6.518 29.840,7.599 29.840,8.928 L29.840,11.532 C29.840,11.840 29.595,12.089 29.294,12.089 L26.023,12.089 C25.722,12.089 25.478,11.840 25.478,11.532 L25.478,7.075 C25.478,6.767 25.722,6.518 26.023,6.518 ZM26.568,10.975 L28.749,10.975 L28.749,8.928 C28.749,8.213 28.180,7.632 27.481,7.632 L26.568,7.632 L26.568,10.975 ZM26.023,13.204 L27.113,13.204 C27.414,13.204 27.659,13.453 27.659,13.761 C27.659,14.068 27.414,14.318 27.113,14.318 L26.023,14.318 C25.722,14.318 25.478,14.068 25.478,13.761 C25.478,13.453 25.722,13.204 26.023,13.204 ZM4.758,3.175 C5.059,3.175 5.303,3.425 5.303,3.732 L5.303,13.761 C5.303,14.068 5.059,14.318 4.758,14.318 C4.457,14.318 4.212,14.068 4.212,13.761 L4.212,3.732 C4.212,3.425 4.457,3.175 4.758,3.175 ZM8.029,3.175 C8.330,3.175 8.575,3.425 8.575,3.732 L8.575,13.761 C8.575,14.068 8.330,14.318 8.029,14.318 C7.728,14.318 7.484,14.068 7.484,13.761 L7.484,3.732 C7.484,3.425 7.728,3.175 8.029,3.175 ZM11.301,3.175 C11.602,3.175 11.846,3.425 11.846,3.732 L11.846,13.761 C11.846,14.068 11.602,14.318 11.301,14.318 C11.000,14.318 10.756,14.068 10.756,13.761 L10.756,3.732 C10.756,3.425 11.000,3.175 11.301,3.175 ZM14.572,3.175 C14.873,3.175 15.118,3.425 15.118,3.732 L15.118,13.761 C15.118,14.068 14.873,14.318 14.572,14.318 C14.271,14.318 14.027,14.068 14.027,13.761 L14.027,3.732 C14.027,3.425 14.271,3.175 14.572,3.175 ZM17.844,3.175 C18.145,3.175 18.389,3.425 18.389,3.732 L18.389,13.761 C18.389,14.068 18.145,14.318 17.844,14.318 C17.543,14.318 17.299,14.068 17.299,13.761 L17.299,3.732 C17.299,3.425 17.543,3.175 17.844,3.175 ZM21.115,3.175 C21.416,3.175 21.661,3.425 21.661,3.732 L21.661,13.761 C21.661,14.068 21.416,14.318 21.115,14.318 C20.815,14.318 20.570,14.068 20.570,13.761 L20.570,3.732 C20.570,3.425 20.815,3.175 21.115,3.175 ZM5.303,19.332 C5.905,19.332 6.393,19.831 6.393,20.446 C6.393,21.061 5.905,21.561 5.303,21.561 C4.701,21.561 4.212,21.061 4.212,20.446 C4.212,19.831 4.701,19.332 5.303,19.332 ZM10.755,19.332 C11.357,19.332 11.846,19.831 11.846,20.446 C11.846,21.061 11.357,21.561 10.755,21.561 C10.154,21.561 9.665,21.061 9.665,20.446 C9.665,19.831 10.154,19.332 10.755,19.332 ZM28.204,19.332 C28.806,19.332 29.294,19.831 29.294,20.446 C29.294,21.061 28.806,21.561 28.204,21.561 C27.602,21.561 27.113,21.061 27.113,20.446 C27.113,19.831 27.602,19.332 28.204,19.332 Z" />
</svg>
