<svg xmlns="http://www.w3.org/2000/svg" width="29" height="28"><path fill-rule="evenodd" fill="#687D08" d="M26.842 20.533h-2.355v.933a.469.469 0 0 1-.471.467.468.468 0 0 1-.47-.467v-.933h-.942V23.8a.469.469 0 0 1-.471.466.469.469 0 0 1-.471-.466v-3.267h-.942v2.8a.469.469 0 0 1-.471.467.469.469 0 0 1-.471-.467v-2.8h-.942v5.133a.469.469 0 0 1-.471.467.469.469 0 0 1-.471-.467v-5.133h-.941v2.8a.469.469 0 0 1-.471.467.469.469 0 0 1-.471-.467v-2.8h-.942v2.8a.469.469 0 0 1-.471.467.469.469 0 0 1-.471-.467v-2.8h-.942v5.133a.469.469 0 0 1-.471.467.469.469 0 0 1-.471-.467v-5.133h-.942v1.4c0 .258-.21.467-.47.467a.468.468 0 0 1-.471-.467v-1.4h-.942v2.8a.469.469 0 0 1-.471.467.469.469 0 0 1-.471-.467v-2.8h-.942v5.133a.469.469 0 0 1-.471.467.469.469 0 0 1-.471-.467v-5.133H5.65V23.8a.469.469 0 0 1-.471.466.469.469 0 0 1-.471-.466v-3.267H1.412c-.78 0-1.413-.627-1.413-1.4V7.932c-.001-.37.152-.725.424-.979.251-.278.613-.431.989-.42h3.296V4.386a.933.933 0 0 1 .283-.653L8.476.279a.948.948 0 0 1 .659-.28h12.998c.374-.001.732.151.989.42.279.249.434.608.424.98v5.134h3.296c.374-.002.732.15.989.42.28.249.434.607.424.979v11.201c0 .773-.633 1.4-1.413 1.4zM3.767 19.6h20.72v-.934H3.767v.934zM8.476 1.586L6.31 3.733h2.166V1.586zm14.128-.187a.469.469 0 0 0-.471-.467H9.418v2.801a.962.962 0 0 1-.942.933H5.65v4.666h16.954V1.399zm4.709 6.533a.469.469 0 0 0-.471-.466h-3.296v1.866h1.412c.26 0 .471.21.471.467a.469.469 0 0 1-.471.467H3.296a.469.469 0 0 1-.471-.467.47.47 0 0 1 .471-.467h1.412V7.466H1.412a.43.43 0 0 0-.33.14.76.76 0 0 0-.188.326v3.267h.989a.962.962 0 0 1 .942.934v2.8a.961.961 0 0 1-.942.933H.894v3.267c0 .258.211.467.471.467h1.46v-.934c0-.515.421-.933.942-.933h20.72c.521 0 .942.418.942.933v.934h1.413c.26 0 .471-.209.471-.467V7.932zM.941 12.133v2.8h.989v-2.8H.941zM25.9 14.466a.469.469 0 0 1-.471-.467v-.933c0-.258.211-.467.471-.467s.471.209.471.467v.933a.469.469 0 0 1-.471.467zm-2.354 0a.468.468 0 0 1-.471-.467v-.933c0-.258.21-.467.471-.467.26 0 .47.209.47.467v.933c0 .258-.21.467-.47.467zm-2.355 0a.469.469 0 0 1-.471-.467v-.933c0-.258.211-.467.471-.467s.471.209.471.467v.933a.469.469 0 0 1-.471.467zm-2.355 0a.469.469 0 0 1-.471-.467v-.933c0-.258.211-.467.471-.467s.471.209.471.467v.933a.469.469 0 0 1-.471.467zm-2.354 0a.469.469 0 0 1-.471-.467v-.933c0-.258.211-.467.471-.467s.471.209.471.467v.933a.469.469 0 0 1-.471.467zm-2.355 0a.469.469 0 0 1-.471-.467v-.933c0-.258.211-.467.471-.467s.471.209.471.467v.933a.469.469 0 0 1-.471.467zm-2.355 0a.469.469 0 0 1-.471-.467v-.933c0-.258.211-.467.471-.467s.471.209.471.467v.933a.469.469 0 0 1-.471.467zm-2.354 0a.469.469 0 0 1-.471-.467v-.933c0-.258.211-.467.471-.467s.471.209.471.467v.933a.469.469 0 0 1-.471.467zm-2.355 0a.469.469 0 0 1-.471-.467v-.933c0-.258.211-.467.471-.467s.471.209.471.467v.933a.469.469 0 0 1-.471.467zm-2.355 0a.468.468 0 0 1-.47-.467v-.933c0-.258.21-.467.47-.467.261 0 .471.209.471.467v.933c0 .258-.21.467-.471.467zm4.239 10.267c.26 0 .471.209.471.467v1.866a.469.469 0 0 1-.471.467.469.469 0 0 1-.471-.467V25.2c0-.258.211-.467.471-.467zm1.884-1.867c.26 0 .47.209.47.467v2.8c0 .258-.21.467-.47.467a.468.468 0 0 1-.471-.467v-2.8c0-.258.21-.467.471-.467zm3.767 1.867c.26 0 .471.209.471.467v2.333a.469.469 0 0 1-.471.467.469.469 0 0 1-.471-.467V25.2c0-.258.211-.467.471-.467zm1.884 0c.26 0 .471.209.471.467v1.4a.469.469 0 0 1-.471.466.469.469 0 0 1-.471-.466v-1.4c0-.258.211-.467.471-.467zm3.767 0c.26 0 .471.209.471.467v1.866a.469.469 0 0 1-.471.467.469.469 0 0 1-.471-.467V25.2c0-.258.211-.467.471-.467zm3.767-1.867c.26 0 .471.209.471.467v.933a.469.469 0 0 1-.471.467.468.468 0 0 1-.47-.467v-.933c0-.258.21-.467.47-.467z"/></svg>