<svg xmlns="http://www.w3.org/2000/svg" width="19" height="24"><path fill-rule="evenodd" fill="#FFF" d="M18.614 23.789h-.515a.383.383 0 0 1-.387-.38c0-.21.173-.381.387-.381h.128V.971h-.128a.384.384 0 0 1-.387-.38c0-.211.173-.381.387-.381h.515c.213 0 .386.17.386.381v22.818c0 .21-.173.38-.386.38zm-2.061 0H.798a.383.383 0 0 1-.387-.38V4.14l.002-.038.005-.028.001-.009a.498.498 0 0 1 .008-.032l.001-.004.011-.031.002-.004a.365.365 0 0 1 .014-.028l.002-.005.015-.025.005-.007a.177.177 0 0 1 .016-.022l.006-.008.023-.025.003-.003L4.13.322 4.133.32a.273.273 0 0 1 .025-.023l.008-.006.023-.016a.365.365 0 0 1 .037-.022l.029-.014.004-.001a.3.3 0 0 1 .032-.011l.004-.001.032-.008.01-.002.028-.004.038-.002h12.15c.214 0 .386.17.386.381v22.818c0 .21-.172.38-.386.38zM4.017 1.509L1.731 3.76h2.286V1.509zm12.15-.538H4.79V4.14c0 .21-.173.38-.387.38H1.184v18.508h14.983V.971zM3.373 7.309h10.605c.213 0 .386.171.386.381s-.173.38-.386.38H3.373a.383.383 0 0 1-.386-.38c0-.21.173-.381.386-.381zm0 2.029h4.272c.214 0 .387.17.387.38s-.173.38-.387.38H3.373a.383.383 0 0 1-.386-.38c0-.21.173-.38.386-.38zm0 2.028h4.272c.214 0 .387.17.387.38s-.173.38-.387.38H3.373a.383.383 0 0 1-.386-.38c0-.21.173-.38.386-.38zm0 2.028h10.605c.213 0 .386.17.386.38s-.173.381-.386.381H3.373a.384.384 0 0 1-.386-.381c0-.21.173-.38.386-.38zm0 2.028h4.272c.214 0 .387.171.387.381s-.173.38-.387.38H3.76v3.296h3.499v-2.155c0-.21.173-.38.386-.38.214 0 .387.17.387.38v2.535c0 .21-.173.381-.387.381H3.373a.384.384 0 0 1-.386-.381v-4.056c0-.21.173-.381.386-.381zm6.333 0h4.272c.213 0 .386.171.386.381s-.173.38-.386.38H9.706a.383.383 0 0 1-.387-.38c0-.21.173-.381.387-.381zm0 2.029h4.272c.213 0 .386.17.386.38s-.173.38-.386.38H9.706a.383.383 0 0 1-.387-.38c0-.21.173-.38.387-.38zm0 2.028h1.696c.214 0 .387.17.387.38s-.173.381-.387.381H9.706a.384.384 0 0 1-.387-.381c0-.21.173-.38.387-.38zm4.272-9.381H9.706a.383.383 0 0 1-.387-.38c0-.21.173-.38.387-.38h4.272c.213 0 .386.17.386.38s-.173.38-.386.38zm0 2.028H9.706a.383.383 0 0 1-.387-.38c0-.21.173-.38.387-.38h4.272c.213 0 .386.17.386.38s-.173.38-.386.38zm0-7.606H5.949a.383.383 0 0 1-.387-.38c0-.21.173-.38.387-.38h8.029c.213 0 .386.17.386.38s-.173.38-.386.38z"/></svg>