<svg xmlns="http://www.w3.org/2000/svg" width="24" height="25"><path fill-rule="evenodd" fill="#FFF" d="M4.425 5.946c0-.229.188-.415.42-.415h13.992c.232 0 .42.186.42.415a.418.418 0 0 1-.42.415H4.845a.418.418 0 0 1-.42-.415zm1.09 1.849c0-.229.188-.415.421-.415h11.81c.232 0 .421.186.421.415a.418.418 0 0 1-.421.415H5.936a.418.418 0 0 1-.421-.415zM15.81 20.893c.232 0 .42.186.42.415a.418.418 0 0 1-.42.415H7.872a.418.418 0 0 1-.421-.415c0-.229.189-.415.421-.415h7.938zm-9.091-1.434c0-.229.188-.415.42-.415h9.404c.232 0 .42.186.42.415a.418.418 0 0 1-.42.415H7.139a.418.418 0 0 1-.42-.415zM21.45 4.254h-.153l-1.947 12.58a.42.42 0 0 1-.831-.126l1.928-12.454H3.235L6.01 22.179a1.232 1.232 0 0 0 1.23 1.043h9.202c.619 0 1.137-.438 1.23-1.043l.552-3.566a.42.42 0 0 1 .48-.347.416.416 0 0 1 .352.473l-.552 3.566a2.066 2.066 0 0 1-2.062 1.747H7.24a2.066 2.066 0 0 1-2.062-1.747L2.384 4.254h-.152c-1.057 0-1.916-.847-1.916-1.89 0-1.042.859-1.891 1.916-1.891h2.673c.233 0 .421.186.421.415 0 .23-.188.415-.421.415H2.232a1.07 1.07 0 0 0-1.075 1.061 1.07 1.07 0 0 0 1.075 1.061H21.45a1.07 1.07 0 0 0 1.075-1.061 1.07 1.07 0 0 0-1.075-1.061H6.86a.417.417 0 0 1-.42-.415c0-.229.188-.415.42-.415h14.59c1.056 0 1.916.849 1.916 1.891 0 1.043-.86 1.89-1.916 1.89z"/></svg>