<svg xmlns="http://www.w3.org/2000/svg" width="23" height="21"><path fill-rule="evenodd" fill="#FFF" d="M20.841 3.737a12.053 12.053 0 0 1 1.38 5.623c0 3.061-1.118 5.941-3.148 8.108-2.038 2.176-4.748 3.374-7.634 3.374-2.885 0-5.596-1.198-7.633-3.374C1.776 15.301.658 12.421.658 9.36c0-1.976.476-3.911 1.38-5.623l-.847-.402a.373.373 0 0 1-.129-.574L3.051.349a.38.38 0 0 1 .456-.101l4.848 2.293a.374.374 0 0 1 .098.608C7.154 4.381 6.378 6.354 6.378 8.427c0 3.606 2.27 6.54 5.061 6.54s5.062-2.934 5.062-6.54c0-2.073-.776-4.046-2.076-5.278a.375.375 0 0 1-.112-.329.376.376 0 0 1 .211-.279L19.372.248a.38.38 0 0 1 .456.101l1.989 2.412a.373.373 0 0 1-.13.574l-.846.402zM19.43 1.05l-4.108 1.943c1.236 1.381 1.935 3.33 1.935 5.434 0 1.93-.594 3.748-1.673 5.119-1.1 1.399-2.572 2.17-4.145 2.17-1.572 0-3.044-.771-4.145-2.17-1.079-1.371-1.673-3.189-1.673-5.119 0-2.104.7-4.053 1.935-5.434L3.449 1.05 1.952 2.866l.772.367a.37.37 0 0 1 .165.522A11.276 11.276 0 0 0 1.415 9.36c0 5.918 4.497 10.733 10.024 10.733 5.528 0 10.025-4.815 10.025-10.733 0-1.984-.51-3.922-1.475-5.605a.374.374 0 0 1 .166-.522l.772-.367L19.43 1.05zm-7.991 18.395c-5.166 0-9.369-4.524-9.369-10.085 0-1.57.346-3.138.999-4.532a1.23 1.23 0 0 1 1.591-.611c.575.24.877.867.7 1.457a9.652 9.652 0 0 0-.394 2.752c0 2.074.643 4.034 1.811 5.518 1.228 1.561 2.884 2.42 4.662 2.42 1.78 0 3.435-.859 4.663-2.42 1.168-1.485 1.811-3.444 1.811-5.518 0-.949-.133-1.875-.395-2.752a1.206 1.206 0 0 1 .701-1.457 1.229 1.229 0 0 1 1.591.611c.653 1.395.998 2.962.999 4.532 0 5.561-4.203 10.085-9.37 10.085zm7.685-14.303a.472.472 0 0 0-.611-.235.46.46 0 0 0-.269.555c.282.946.426 1.944.426 2.964 0 2.239-.7 4.362-1.971 5.978-1.374 1.747-3.242 2.709-5.26 2.709-2.017 0-3.885-.962-5.259-2.709-1.271-1.615-1.971-3.738-1.971-5.978 0-1.02.143-2.017.426-2.964a.46.46 0 0 0-.269-.555.475.475 0 0 0-.611.235 10.014 10.014 0 0 0-.928 4.218c0 5.148 3.863 9.336 8.612 9.336 4.75 0 8.613-4.188 8.613-9.336 0-1.462-.321-2.92-.928-4.218z"/></svg>