<svg xmlns="http://www.w3.org/2000/svg" width="21" height="27"><path fill-rule="evenodd" fill="#687D08" d="M20.225 6.662h-.188v1.87c0 .585-.135 1.159-.405 1.681l-.188.368a2.816 2.816 0 0 0-.313 1.286v14.1c0 .569-.474 1.033-1.057 1.033H4.651c-1.752 0-3.169-1.386-3.169-3.098 0-.842.345-1.606.905-2.164v-9.55c0-.622-.205-1.227-.587-1.722a3.686 3.686 0 0 1-.771-2.255V6.657H.84a.708.708 0 0 1-.717-.7v-.869c0-1.08.895-1.96 2.006-1.96h.517l1.526-1.49a.969.969 0 0 1 .684-.28h2.049V.916a.45.45 0 0 1 .453-.442h5.886c.248 0 .453.2.453.442v.442h2.501c.259 0 .502.1.685.28l1.526 1.49h.517c1.111 0 2.006.88 2.016 1.96v.874c0 .385-.318.7-.717.7zM2.382 23.908c0 1.217 1.013 2.207 2.275 2.207.037 0 .081-.005.118-.005.017 0 .033-.006.049-.006.022 0 .048-.005.07-.005.016 0 .038-.005.059-.005.017 0 .038 0 .054-.006a.288.288 0 0 0 .07-.01c.011-.005.027-.005.043-.011l.076-.016c.011-.005.027-.005.038-.01.027-.005.048-.016.075-.021.011-.005.022-.005.032-.011.027-.01.054-.015.081-.026.011-.005.016-.005.027-.011l.081-.031c.011-.005.016-.005.022-.011.027-.01.054-.026.081-.036.005 0 .01-.006.016-.006.032-.016.059-.026.086-.042.005 0 .005-.005.011-.005.027-.016.059-.032.086-.047 0-.006.005-.006.005-.006.146-.084.275-.184.394-.295l.032-.031.033-.032c.016-.021.032-.037.048-.053.005-.01.016-.016.022-.026.016-.021.037-.042.054-.063.005-.005.01-.016.016-.021.016-.021.037-.042.054-.069.005-.005.005-.01.01-.016.017-.026.038-.052.054-.079 0-.005.006-.005.006-.01.016-.032.037-.058.054-.09.005 0 .005-.005.005-.005.016-.032.038-.063.054-.095.162-.305.248-.653.248-1.016v-.005c0-.037-.006-.074-.006-.111-.005-.016-.005-.027-.005-.042 0-.021-.005-.048-.005-.069a2.003 2.003 0 0 0-.087-.405c-.005-.006-.005-.016-.01-.027-.011-.016-.016-.037-.022-.052-.005-.016-.016-.037-.021-.053-.006-.005-.006-.005-.006-.011a2.27 2.27 0 0 0-1.833-1.401c-.021 0-.043-.005-.059-.005-.011-.005-.027-.005-.038-.005-.027 0-.059-.005-.086-.005h-.167c-.027 0-.059.005-.086.005h-.033c-.032.005-.059.005-.091.01-.011.006-.016.006-.027.006l-.097.015c-.006.006-.011.006-.016.006a2.243 2.243 0 0 0-1.089.526l-.087.079a2.166 2.166 0 0 0-.668 1.565zM1.94 8.211c0 .622.205 1.227.588 1.722.501.648.77 1.444.77 2.255v8.933c.205-.095.421-.163.642-.216.011 0 .016-.005.027-.005a.498.498 0 0 1 .091-.021c.017 0 .027-.005.044-.005.043-.011.086-.016.129-.021.021-.006.048-.006.075-.011.022 0 .044-.005.065-.005.027 0 .054-.005.081-.005.021-.006.038-.006.059-.006.038-.005.081-.005.119-.005h.048a.87.87 0 0 0 .114.005.163.163 0 0 0 .054.006c.032 0 .064 0 .097.005.016 0 .027.005.043.005l.14.016c.264.037.517.105.755.205l.037.016c.033.011.06.026.086.037.038.016.071.037.108.053h.006a3.141 3.141 0 0 1 1.493 1.633c0 .005.005.01.005.015.006.027.017.053.027.079.006.021.016.043.022.064l.016.052c.011.037.022.069.032.106 0 .01.006.016.006.026.032.132.059.269.075.406v.021c.006.042.006.089.011.137v.031c.005.058.005.111.005.169v.031c0 .053 0 .1-.005.153-.005.011-.005.026-.005.042 0 .042-.006.085-.011.127 0 .015-.006.031-.006.047-.005.042-.016.084-.021.127 0 .015-.005.026-.005.042a1.523 1.523 0 0 1-.027.131c0 .011-.006.021-.006.032-.011.053-.027.105-.043.158v.005a3.11 3.11 0 0 1-.194.48c0 .005-.005.01-.005.015-.022.042-.044.09-.07.132l-.017.026c-.027.037-.048.079-.075.116-.006.005-.011.016-.016.026l-.081.111a1.58 1.58 0 0 1-.113.142c-.006.006-.006.011-.011.016l-.113.127a.218.218 0 0 0-.022.021c-.032.026-.059.058-.092.089-.005 0-.005.006-.01.011h10.695c.367 0 .663-.29.663-.648v-13.6c0-.585.135-1.159.404-1.681l.189-.368c.205-.401.313-.838.313-1.286h.01v-1.87H1.94v1.549zm4.97-5.968H4.835l-.906.885H6.91v-.885zm5.881-.442v-.443H7.816v1.77h4.975V1.801zm3.429.442h-2.528v.885h3.434l-.906-.885zm3.806 3.208v-.363c0-.596-.496-1.08-1.105-1.08H2.129c-.61 0-1.106.484-1.106 1.08v.363c0 .179.151.327.335.327h18.339a.333.333 0 0 0 .334-.327h-.005zm-4.97 10.055h-1.812a.437.437 0 0 1-.447-.437v-1.77a.45.45 0 0 1 .453-.442c.248 0 .453.2.453.442v.69c.199-.221.35-.447.458-.69.329-.732.248-1.527-.092-2.307a3.717 3.717 0 0 0-.205-.405 2.154 2.154 0 0 0-.086-.132.434.434 0 0 1 .113-.616.458.458 0 0 1 .631.11c.097.143.237.38.377.696.431.979.534 2.017.086 3.007a3.45 3.45 0 0 1-.652.969h.723a.45.45 0 0 1 .452.443.45.45 0 0 1-.452.442zm-2.464 2.134a4.791 4.791 0 0 1-.712.368c-1.002.422-2.064.522-3.078.085a3.626 3.626 0 0 1-.992-.638v.706a.45.45 0 0 1-.452.443.451.451 0 0 1-.453-.443v-1.77a.45.45 0 0 1 .453-.442h1.811c.248 0 .453.2.453.442a.45.45 0 0 1-.453.443h-.706c.226.194.458.342.706.447.744.322 1.563.243 2.356-.084.156-.063.291-.131.415-.2.07-.042.113-.068.135-.084a.456.456 0 0 1 .63.111.434.434 0 0 1-.113.616zM9.04 12.278a.462.462 0 0 1-.642 0 .435.435 0 0 1 0-.627l.577-.564c-.917.058-1.563.532-2.022 1.317a4.59 4.59 0 0 0-.404.964c-.054.2-.086.348-.097.426a.457.457 0 0 1-.512.38.447.447 0 0 1-.388-.501 3.93 3.93 0 0 1 .124-.542c.113-.395.275-.79.49-1.164.609-1.043 1.542-1.707 2.82-1.765l-.588-.574a.435.435 0 0 1 0-.627.462.462 0 0 1 .642 0l1.358 1.322a.435.435 0 0 1 0 .627L9.04 12.278zM4.646 22.58c.749 0 1.358.596 1.358 1.328 0 .732-.609 1.327-1.358 1.327-.749 0-1.358-.595-1.358-1.327 0-.738.609-1.328 1.358-1.328zm0 1.77a.45.45 0 0 0 .453-.442.451.451 0 0 0-.453-.443.451.451 0 0 0-.453.443.45.45 0 0 0 .453.442z"/></svg>