<svg xmlns="http://www.w3.org/2000/svg" width="25" height="24"><path fill-rule="evenodd" fill="#FFF" d="M24.513 2.921c0-.753-.253-2.711-.253-2.711H1.075S.72 2.168.72 2.921c0 6.303 5.045 11.517 11.39 11.777v8.088H8.364v1.003h8.554v-1.003h-3.796v-8.088c6.345-.26 11.391-5.474 11.391-11.777zM12.602 13.709c-6.024 0-10.87-4.818-10.87-10.788 0-.55.048-1.153.15-1.708h15.303l-2.851 3.261h2.885l-2.583 2.961 2.681 3.111.759-.651-2.127-2.46 3.44-3.964h-2.836l1.994-2.258h4.788c.103.603.151 1.153.151 1.708 0 5.97-4.861 10.788-10.884 10.788z"/></svg>